<?xml version="1.0" encoding="iso-8859-1"?>
<!-- Generator: Adobe Illustrator 18.0.0, SVG Export Plug-In . SVG Version: 6.00 Build 0)  -->
<!DOCTYPE svg PUBLIC "-//W3C//DTD SVG 1.1//EN" "http://www.w3.org/Graphics/SVG/1.1/DTD/svg11.dtd">
<svg version="1.1" id="Capa_1" xmlns="http://www.w3.org/2000/svg" xmlns:xlink="http://www.w3.org/1999/xlink" x="0px" y="0px"
	 viewBox="0 0 404.618 404.618" style="enable-background:new 0 0 404.618 404.618;" xml:space="preserve">
<g>
	<path d="M84.62,120.674h-48.36c-2.671,0-5.16,1.436-6.495,3.75l-24.18,41.879c-1.336,2.316-1.336,5.188,0,7.5l24.18,41.885
		c1.335,2.311,3.824,3.746,6.495,3.746h48.36c2.671,0,5.16-1.436,6.496-3.746l24.18-41.885c1.335-2.313,1.335-5.184,0-7.5
		l-24.18-41.879C89.78,122.11,87.29,120.674,84.62,120.674z"/>
	<path d="M180.034,178.586h-48.361c-2.67,0-5.16,1.439-6.495,3.75l-24.181,41.885c-1.334,2.311-1.334,5.186,0,7.498l24.181,41.883
		c1.335,2.313,3.825,3.75,6.495,3.75h48.361c2.67,0,5.158-1.438,6.494-3.75l24.179-41.883c1.335-2.313,1.335-5.188,0-7.498
		l-24.179-41.885C185.192,180.026,182.704,178.586,180.034,178.586z"/>
	<path d="M186.528,293.168c-1.336-2.315-3.824-3.75-6.494-3.75h-48.361c-2.67,0-5.16,1.435-6.495,3.75l-24.181,41.879
		c-1.334,2.314-1.334,5.188,0,7.5l24.181,41.881c1.335,2.313,3.825,3.75,6.495,3.75h48.361c2.67,0,5.158-1.438,6.494-3.75
		l24.179-41.881c1.335-2.313,1.335-5.186,0-7.5L186.528,293.168z"/>
	<path d="M110.712,280.049L86.532,238.17c-1.335-2.314-3.824-3.75-6.494-3.75H31.676c-2.671,0-5.16,1.436-6.496,3.75L1,280.049
		c-1.334,2.315-1.334,5.188,0,7.5l24.18,41.881c1.336,2.313,3.825,3.75,6.496,3.75h48.361c2.67,0,5.159-1.438,6.494-3.75
		l24.181-41.881C112.047,285.237,112.047,282.364,110.712,280.049z"/>
	<path d="M180.034,64.428h-48.361c-2.67,0-5.16,1.436-6.495,3.75l-24.181,41.879c-1.334,2.314-1.334,5.185,0,7.502l24.181,41.879
		c1.335,2.314,3.825,3.75,6.495,3.75h48.361c2.67,0,5.158-1.436,6.494-3.75l24.179-41.879c1.335-2.316,1.335-5.188,0-7.502
		l-24.179-41.879C185.192,65.864,182.704,64.428,180.034,64.428z"/>
	<path d="M229.167,221.899h48.36c2.67,0,5.16-1.434,6.495-3.75l24.181-41.879c1.334-2.314,1.334-5.188,0-7.5l-24.181-41.885
		c-1.335-2.309-3.825-3.748-6.495-3.748h-48.36c-2.671,0-5.159,1.44-6.495,3.748l-24.178,41.885c-1.336,2.313-1.336,5.186,0,7.5
		l24.178,41.879C224.008,220.465,226.497,221.899,229.167,221.899z"/>
	<path d="M379.436,184.803c-1.336-2.314-3.824-3.75-6.495-3.75h-48.36c-2.671,0-5.16,1.436-6.496,3.75l-24.18,41.879
		c-1.334,2.314-1.334,5.186,0,7.5l24.18,41.881c1.336,2.313,3.825,3.75,6.496,3.75h48.36c2.671,0,5.159-1.438,6.495-3.75
		l24.18-41.881c1.336-2.314,1.336-5.186,0-7.5L379.436,184.803z"/>
	<path d="M379.436,297.295c-1.336-2.309-3.824-3.75-6.495-3.75h-48.36c-2.671,0-5.16,1.441-6.496,3.75l-24.18,41.885
		c-1.334,2.309-1.334,5.186,0,7.5l24.18,41.879c1.336,2.315,3.825,3.75,6.496,3.75h48.36c2.671,0,5.159-1.435,6.495-3.75
		l24.18-41.879c1.336-2.314,1.336-5.191,0-7.5L379.436,297.295z"/>
	<path d="M308.204,280.049l-24.181-41.879c-1.335-2.314-3.825-3.75-6.495-3.75h-48.36c-2.671,0-5.159,1.436-6.495,3.75
		l-24.178,41.879c-1.336,2.315-1.336,5.188,0,7.5l24.178,41.881c1.336,2.313,3.824,3.75,6.495,3.75h48.36
		c2.67,0,5.16-1.438,6.495-3.75l24.181-41.881C309.538,285.237,309.538,282.364,308.204,280.049z"/>
	<path d="M308.204,57.94l-24.181-41.881c-1.335-2.313-3.825-3.75-6.495-3.75h-48.36c-2.671,0-5.159,1.438-6.495,3.75L198.495,57.94
		c-1.336,2.313-1.336,5.189,0,7.5l24.178,41.883c1.336,2.311,3.824,3.75,6.495,3.75h48.36c2.67,0,5.16-1.439,6.495-3.75
		l24.181-41.883C309.538,63.129,309.538,60.252,308.204,57.94z"/>
	<path d="M379.436,70.639c-1.336-2.313-3.824-3.75-6.495-3.75h-48.36c-2.671,0-5.16,1.438-6.496,3.75l-24.18,41.885
		c-1.334,2.309-1.334,5.186,0,7.496l24.18,41.883c1.336,2.314,3.825,3.752,6.496,3.752h48.36c2.671,0,5.159-1.438,6.495-3.752
		l24.18-41.883c1.336-2.311,1.336-5.188,0-7.496L379.436,70.639z"/>
</g>
<g>
</g>
<g>
</g>
<g>
</g>
<g>
</g>
<g>
</g>
<g>
</g>
<g>
</g>
<g>
</g>
<g>
</g>
<g>
</g>
<g>
</g>
<g>
</g>
<g>
</g>
<g>
</g>
<g>
</g>
</svg>
